<svg height="242" viewBox="0 0 547 242" width="547" xmlns="http://www.w3.org/2000/svg" xmlns:xlink="http://www.w3.org/1999/xlink"><linearGradient id="a" x1="50%" x2="50%" y1="0%" y2="99.636691%"><stop offset="0" stop-color="#777"/><stop offset="1" stop-color="#4a4a4a"/></linearGradient><g fill="none" fill-rule="evenodd"><g transform="translate(24.417969 200.710145)"><rect fill="url(#a)" height="40" rx="6" width="88"/><text fill="#fff" font-family="FZLTZCHJW--GB1-0, FZLanTingHeiS-DB1-GB" font-size="20"><tspan x="16" y="27">壁纸层</tspan></text><g stroke="#4c4c4c" stroke-width="2" transform="matrix(0 -1 1 0 88 27.5)"><path d="m7.5 0v201"/><circle cx="7.5" cy="208.5" r="7.5"/></g></g><g transform="translate(.417969 101.210145)"><rect fill="url(#a)" height="40" rx="6" width="112"/><text fill="#fff" font-family="FZLTZCHJW--GB1-0, FZLanTingHeiS-DB1-GB" font-size="20"><tspan x="16" y="27">原景视窗</tspan></text><g stroke="#4c4c4c" stroke-width="2" transform="matrix(0 -1 1 0 112 27.5)"><path d="m7.5 0v303"/><circle cx="7.5" cy="310.5" r="7.5"/></g></g><g transform="translate(24.417969 1.210145)"><rect fill="url(#a)" height="40" rx="6" width="88"/><text fill="#fff" font-family="FZLTZCHJW--GB1-0, FZLanTingHeiS-DB1-GB" font-size="20"><tspan x="16" y="27">图标层</tspan></text></g><g stroke="#4c4c4c" stroke-width="2" transform="matrix(0 -1 1 0 112.417969 28.710145)"><path d="m7.5 0v418"/><circle cx="7.5" cy="425.5" r="7.5"/></g></g></svg>